<svg width="72" height="72" viewBox="0 0 72 72" fill="none" xmlns="http://www.w3.org/2000/svg">
<path d="M57 27C57.0013 23.3847 56.0693 19.8303 54.2941 16.6808C52.5189 13.5314 49.9607 10.8935 46.8672 9.02269C43.7736 7.15184 40.2494 6.11132 36.6358 6.00188C33.0221 5.89243 29.4414 6.71775 26.2403 8.39795C23.0392 10.0782 20.326 12.5563 18.3635 15.5926C16.4009 18.6288 15.2555 22.1203 15.038 25.7291C14.8206 29.3378 15.5384 32.9416 17.1222 36.1915C18.7059 39.4415 21.1018 42.2275 24.078 44.28L15 60L21.768 60.279L25.392 66L35.79 47.988C35.862 47.988 35.928 48 36 48C36.072 48 36.138 47.991 36.21 47.988L46.608 66L50.304 60.402L57 60L47.922 44.28C50.7228 42.3516 53.0127 39.771 54.5942 36.7606C56.1756 33.7503 57.0013 30.4005 57 27ZM21 27C21 24.0333 21.8797 21.1332 23.528 18.6664C25.1762 16.1997 27.5189 14.2771 30.2598 13.1418C33.0006 12.0065 36.0166 11.7094 38.9264 12.2882C41.8361 12.867 44.5088 14.2956 46.6066 16.3934C48.7044 18.4912 50.133 21.1639 50.7118 24.0736C51.2906 26.9833 50.9935 29.9993 49.8582 32.7402C48.7229 35.4811 46.8003 37.8238 44.3336 39.472C41.8668 41.1203 38.9667 42 36 42C32.0218 42 28.2064 40.4196 25.3934 37.6066C22.5804 34.7935 21 30.9782 21 27Z" fill="#22B80B"/>
<path d="M31.7602 35.001H28V27.8006H29.6001L31.7602 35.001ZM42.4001 24.6004H37.6006V21.4002C37.6006 20.7636 37.3478 20.1531 36.8976 19.703C36.4475 19.2529 35.837 19 35.2005 19H34.4004V22.2002L32.0803 25.1004C31.5107 25.8123 31.2004 26.6969 31.2002 27.6086V28.6006L32.8803 34.201H39.5504C40.2641 34.2011 40.9574 33.9625 41.52 33.5233C42.0826 33.084 42.4823 32.4693 42.6554 31.7768L43.9522 26.5885C44.0112 26.3526 44.0156 26.1064 43.9652 25.8685C43.9148 25.6307 43.8108 25.4075 43.6612 25.2158C43.5115 25.0242 43.3202 24.8691 43.1017 24.7625C42.8832 24.6558 42.6433 24.6004 42.4001 24.6004Z" fill="#22B80B"/>
</svg>
