<svg width="90" height="72" viewBox="0 0 90 72" fill="none" xmlns="http://www.w3.org/2000/svg">
<path d="M38.2781 9.08437L31.0922 16.2703C28.9406 16.8609 26.9438 17.9437 25.2563 19.4344L21.5156 22.7672C20.0812 24.0469 18.2109 24.75 16.2844 24.75H13.5V42.75C16.3687 42.8344 19.0969 44.0016 21.1359 46.0406L26.1422 51.0469L27.1266 52.0312L30.9234 55.8281C31.7953 56.7 33.2297 56.7 34.1016 55.8281C34.3406 55.5891 34.5234 55.3078 34.6219 55.0125C35.0156 53.9297 35.9297 53.1141 37.0547 52.8609C38.1797 52.6078 39.3609 52.9453 40.1766 53.775L41.6953 55.2656C43.3266 56.8969 45.9703 56.8969 47.5875 55.2656C48.3469 54.5062 48.7547 53.5359 48.7969 52.5375C48.8531 51.3 49.5844 50.2031 50.7094 49.6688C51.8344 49.1344 53.1422 49.2469 54.1406 49.9641C55.4625 50.9062 57.3047 50.7797 58.4859 49.5984C59.8078 48.2766 59.8078 46.1391 58.4859 44.8312L47.8266 34.1719L42.7922 38.8125C38.9531 42.3563 33.0609 42.4125 29.1516 38.9391C24.6938 34.9734 24.5953 28.0547 28.9266 23.9625L38.7844 14.6531C42.6375 11.025 47.7281 9 53.0297 9C58.1063 9 63.0141 10.8703 66.7969 14.2312L71.0297 18H87.75C88.9875 18 90 19.0125 90 20.25V49.5C90 51.9891 87.9891 54 85.5 54H81C79.3406 54 77.8781 53.1 77.1047 51.75H65.1656C64.6875 52.6922 64.0547 53.5922 63.2672 54.3797C60.8625 56.7844 57.5297 57.7266 54.4078 57.2062C53.9016 58.2328 53.2125 59.1891 52.3547 60.0469C48.5156 63.8859 42.5109 64.2656 38.2359 61.1859C34.7062 64.1109 29.4469 63.9281 26.1422 60.6094L22.3594 56.8125L21.375 55.8281L16.3687 50.8219C15.5953 50.0484 14.5828 49.5984 13.5 49.5141C13.5 51.9891 11.475 54 9 54H4.5C2.01094 54 0 51.9891 0 49.5V20.25C0 19.0125 1.0125 18 2.25 18H16.2844C16.5656 18 16.8328 17.9016 17.0297 17.7188L20.7563 14.4C24.6797 10.9266 29.7281 9 34.9734 9H36.4219C37.0406 9 37.6734 9.02812 38.2781 9.08437ZM76.5 45V24.75H69.75C68.9203 24.75 68.1188 24.4406 67.5141 23.8922L62.325 19.2797C59.7656 17.0016 56.4609 15.75 53.0297 15.75C49.4578 15.75 46.0266 17.1141 43.425 19.5609L33.5672 28.8703C32.1187 30.2484 32.1469 32.5688 33.6375 33.8906C34.9453 35.0578 36.9281 35.0297 38.2078 33.8484L48.3188 24.5109C49.6828 23.2453 51.8203 23.3297 53.0859 24.7078C54.3516 26.0859 54.2672 28.2094 52.8891 29.475L52.7766 29.5875L63.2391 40.05C64.6453 41.4562 65.5594 43.1859 65.9672 44.9859H76.5V45ZM9 47.25C9 46.6533 8.76295 46.081 8.34099 45.659C7.91903 45.2371 7.34674 45 6.75 45C6.15326 45 5.58097 45.2371 5.15901 45.659C4.73705 46.081 4.5 46.6533 4.5 47.25C4.5 47.8467 4.73705 48.419 5.15901 48.841C5.58097 49.2629 6.15326 49.5 6.75 49.5C7.34674 49.5 7.91903 49.2629 8.34099 48.841C8.76295 48.419 9 47.8467 9 47.25ZM83.25 49.5C83.8467 49.5 84.419 49.2629 84.841 48.841C85.2629 48.419 85.5 47.8467 85.5 47.25C85.5 46.6533 85.2629 46.081 84.841 45.659C84.419 45.2371 83.8467 45 83.25 45C82.6533 45 82.081 45.2371 81.659 45.659C81.2371 46.081 81 46.6533 81 47.25C81 47.8467 81.2371 48.419 81.659 48.841C82.081 49.2629 82.6533 49.5 83.25 49.5Z" fill="#22B80B"/>
</svg>
