<svg width="72" height="72" viewBox="0 0 72 72" fill="none" xmlns="http://www.w3.org/2000/svg">
<g clip-path="url(#clip0_16_46)">
<path d="M36 15.75C47.1841 15.75 56.25 24.8159 56.25 36C56.25 47.1841 47.1841 56.25 36 56.25C24.8159 56.25 15.75 47.1841 15.75 36C15.75 24.8159 24.8159 15.75 36 15.75ZM36 18.5749C31.3786 18.5749 26.9464 20.4107 23.6786 23.6786C20.4107 26.9464 18.5749 31.3786 18.5749 36C18.5749 40.6214 20.4107 45.0536 23.6786 48.3214C26.9464 51.5893 31.3786 53.4251 36 53.4251C40.6214 53.4251 45.0536 51.5893 48.3214 48.3214C51.5893 45.0536 53.4251 40.6214 53.4251 36C53.4251 31.3786 51.5893 26.9464 48.3214 23.6786C45.0536 20.4107 40.6214 18.5749 36 18.5749ZM40.1472 22.8132C41.4637 23.311 42.6948 24.0106 43.7963 24.8868C44.0494 25.0812 44.2924 25.2878 44.5313 25.5085C44.5759 25.547 44.6144 25.5875 44.6569 25.63C45.3211 26.2436 45.9245 26.9341 46.4591 27.6752C46.5341 27.7785 46.613 27.8737 46.6819 27.9729C46.8115 28.1632 46.933 28.3617 47.0545 28.5602C47.2634 28.8949 47.456 29.2395 47.6316 29.5929C47.7389 29.7954 47.8341 30.0161 47.9333 30.2308C48.0002 30.3786 48.0751 30.5305 48.1358 30.6884C48.2837 31.057 48.4153 31.4276 48.5348 31.8062C48.5732 31.9318 48.6036 32.0654 48.6401 32.191C48.8455 32.9115 48.9911 33.6477 49.0754 34.3922C49.0896 34.5258 49.1099 34.6675 49.12 34.7992C49.1605 35.2346 49.1868 35.674 49.1868 36.1154C49.1842 36.978 49.1049 37.8386 48.9499 38.6872C48.9215 38.835 48.8972 38.9848 48.8689 39.1266C48.7879 39.5114 48.6947 39.888 48.5854 40.2606C47.5547 39.7888 46.3437 39.0942 46.0278 38.3308C45.4527 36.9538 43.9218 36.2653 43.2981 34.4914C42.2714 31.5551 43.6343 31.6321 43.8246 29.8096C43.9137 28.955 43.2981 28.7768 42.4861 29.1251C40.5907 29.921 39.9487 29.6152 39.566 28.1876C39.1833 26.764 39.566 26.3671 39.566 26.3671C38.2741 26.5088 38.2255 24.9354 38.8958 24.5385C39.3615 24.2712 39.7564 23.4511 40.1472 22.8132ZM34.7323 31.5389C35.9271 30.9922 37.0307 30.7958 36.8849 29.8562C36.7432 28.9267 36.407 28.2341 34.54 28.2341C32.6729 28.2341 33.487 30.7958 31.9561 29.2669C30.4252 27.7481 32.2902 28.141 33.0557 27.7947C33.8231 27.4464 34.5886 26.0188 33.248 25.9175C31.9095 25.8224 32.195 26.5088 31.142 26.12C30.089 25.7231 29.6111 27.495 28.9388 27.248C28.4974 27.0819 27.3128 26.1707 26.5271 25.2736C24.9238 26.6681 23.6545 28.4051 22.8132 30.3563C23.042 33.003 24.4413 34.3922 24.4413 34.3922C24.4413 34.3922 25.1602 36.1154 29.4694 38.2336C29.4694 38.2336 30.2794 38.2822 29.3236 37.3001C28.3678 36.3139 27.3128 35.0827 28.5095 34.4448C29.7043 33.7988 30.0424 33.8535 30.33 35.0381C30.6155 36.2207 31.5754 35.5241 31.6685 34.3922C31.7657 33.2642 33.5356 32.0857 34.7323 31.5389ZM33.8211 37.4924C35.8826 37.4924 35.6902 38.1344 37.3183 39.5681C38.9444 40.9937 38.0837 42.4213 37.2677 43.5067C36.4556 44.588 35.7367 45.8152 35.354 48.0386C34.9693 50.254 33.9649 48.6745 33.6328 48.1338C33.2966 47.5891 32.7701 47.099 32.9159 44.8331C33.0577 42.5691 31.5248 43.9016 31.0003 40.9451C30.4738 37.9926 31.7657 37.4945 33.8231 37.4945L33.8211 37.4924ZM43.8995 39.4445C44.4483 39.0942 45.7625 40.0075 45.479 40.9694C45.1895 41.9312 44.2823 41.3885 43.8266 40.9694C43.371 40.5522 43.3467 39.7888 43.8995 39.4445Z" fill="#22B80B"/>
<path d="M45.45 11.52L49.44 7.53003C58.71 11.91 65.46 20.64 67.11 31.11C67.29 32.34 68.43 33.18 69.69 32.97C70.92 32.79 71.76 31.62 71.55 30.39C69.75 18.96 62.67 9.36003 52.83 4.14003C47.0566 1.07037 40.5463 -0.341746 34.02 0.0600322L45.45 11.52ZM26.55 60.45L22.56 64.44C17.9162 62.247 13.8788 58.9523 10.7991 54.8426C7.71945 50.7329 5.69089 45.9328 4.88998 40.86C4.84756 40.5663 4.74642 40.2841 4.5926 40.0302C4.43879 39.7764 4.23544 39.5561 3.99468 39.3826C3.75392 39.209 3.48067 39.0857 3.19123 39.0199C2.9018 38.9542 2.60209 38.9475 2.30998 39C1.07998 39.18 0.239979 40.35 0.449979 41.58C2.24998 53.01 9.32998 62.61 19.17 67.83C24.18 70.5 30.66 72.36 37.98 71.91L26.55 60.45Z" fill="#22B80B"/>
</g>
<defs>
<clipPath id="clip0_16_46">
<rect width="72" height="72" fill="white"/>
</clipPath>
</defs>
</svg>
