<svg width="24" height="25" viewBox="0 0 24 25" fill="none" xmlns="http://www.w3.org/2000/svg">
<path d="M12 12.2834C12.55 12.2834 13.021 12.0874 13.413 11.6954C13.805 11.3034 14.0007 10.8328 14 10.2834C14 9.73345 13.804 9.26245 13.412 8.87045C13.02 8.47845 12.5493 8.28278 12 8.28345C11.45 8.28345 10.979 8.47945 10.587 8.87145C10.195 9.26345 9.99933 9.73411 10 10.2834C10 10.8334 10.196 11.3044 10.588 11.6964C10.98 12.0884 11.4507 12.2841 12 12.2834ZM12 22.2834C9.31667 20.0001 7.31267 17.8794 5.988 15.9214C4.66333 13.9634 4.00067 12.1508 4 10.4834C4 7.98345 4.80433 5.99178 6.413 4.50845C8.02167 3.02511 9.884 2.28345 12 2.28345C14.1167 2.28345 15.9793 3.02511 17.588 4.50845C19.1967 5.99178 20.0007 7.98345 20 10.4834C20 12.1501 19.3373 13.9628 18.012 15.9214C16.6867 17.8801 14.6827 20.0008 12 22.2834Z" fill="#333333"/>
</svg>
